<svg width="48" height="40" viewBox="0 0 48 40" fill="none" xmlns="http://www.w3.org/2000/svg">
<path d="M22.9092 0.907959C19.7287 0.907959 16.967 2.74513 15.6137 5.40805C14.2415 3.35862 11.9141 1.99887 9.27278 1.99887C5.06823 1.99887 1.63637 5.43077 1.63637 9.63538C1.63637 12.0692 2.78421 14.2353 4.56821 15.6355H4.36366C1.96506 15.6355 0 17.6006 0 19.9992V33.0904C0 35.489 1.96506 37.454 4.36366 37.454H29.4547C31.8303 37.454 33.7811 35.5258 33.8184 33.1586L46.4491 38.9882C46.6153 39.0655 46.7983 39.0997 46.9812 39.0876C47.1641 39.0755 47.341 39.0176 47.4956 38.919C47.6502 38.8205 47.7775 38.6846 47.8657 38.5239C47.9539 38.3632 48.0002 38.1829 48.0003 37.9996V15.09C48.0015 14.9345 47.9694 14.7806 47.9063 14.6385C47.8431 14.4964 47.7503 14.3694 47.6341 14.2661C47.5179 14.1628 47.3809 14.0856 47.2324 14.0395C47.0839 13.9935 46.9273 13.9797 46.773 13.9991C46.6613 14.0107 46.552 14.0394 46.4491 14.0843L33.8184 19.914C33.772 17.5546 31.8245 15.6355 29.4547 15.6355H27.7842C29.7841 14.1406 31.0911 11.7677 31.0911 9.08992C31.0911 4.58406 27.415 0.907959 22.9092 0.907959ZM22.9092 3.08982C26.2359 3.08982 28.9092 5.76323 28.9092 9.08992C28.9092 12.4166 26.2359 15.09 22.9092 15.09C19.5826 15.09 16.9092 12.4166 16.9092 9.08992C16.9092 5.76323 19.5826 3.08982 22.9092 3.08982ZM9.27278 4.18074C12.2982 4.18074 14.7274 6.60994 14.7274 9.63538C14.7274 12.6608 12.2982 15.09 9.27278 15.09C6.24738 15.09 3.8182 12.6608 3.8182 9.63538C3.8182 6.60994 6.24738 4.18074 9.27278 4.18074ZM15.9376 13.3514C16.4842 14.2399 17.2012 15.0128 18.0342 15.6355H13.9773C14.7724 15.0114 15.4401 14.2375 15.9376 13.3514ZM45.8184 16.7946V36.278L33.8184 30.7381V22.3345L45.8184 16.7946ZM4.36366 17.8174H29.4547C30.6823 17.8174 31.6365 18.7716 31.6365 19.9992V21.5845C31.6361 21.6016 31.6361 21.6187 31.6365 21.6357V31.4541C31.6344 31.4938 31.6344 31.5336 31.6365 31.5734V33.0905C31.6365 34.3181 30.6823 35.2723 29.4547 35.2723H4.36366C3.13606 35.2723 2.18183 34.3181 2.18183 33.0905V19.9993C2.18183 18.7717 3.13606 17.8175 4.36366 17.8175V17.8174Z" fill="white"/>
</svg>
