<svg width="43" height="34" viewBox="0 0 43 34" fill="none" xmlns="http://www.w3.org/2000/svg">
<path d="M15.765 24.767C15.9945 24.9223 16.3005 25 16.5301 25C16.7596 25 17.0656 24.9223 17.2951 24.767L28.235 18.3981C28.694 18.0874 29 17.6214 29 17.0777C29 16.534 28.694 15.9903 28.235 15.7573L17.2951 9.23301C16.8361 8.92233 16.224 8.92233 15.765 9.23301C15.306 9.54369 15 10.0097 15 10.5534V23.3689C15 23.9126 15.306 24.4563 15.765 24.767ZM18.0601 13.2718L24.4098 17L18.0601 20.7282V13.2718Z" fill="white"/>
<path d="M2.66785 11.6795C3.74468 11.6795 4.62573 10.7984 4.62573 9.7216V4.4353H9.91202C10.9889 4.4353 11.8699 3.55425 11.8699 2.47742C11.8699 1.40058 10.9889 0.519531 9.91202 0.519531H2.66785C1.59101 0.519531 0.709961 1.40058 0.709961 2.47742V9.7216C0.709961 10.7984 1.59101 11.6795 2.66785 11.6795Z" fill="white"/>
<path d="M33.7987 4.4353H39.085V9.7216C39.085 10.7984 39.966 11.6795 41.0429 11.6795C42.1197 11.6795 43.0008 10.7984 43.0008 9.7216V2.47742C43.0008 1.40058 42.1197 0.519531 41.0429 0.519531H33.7987C32.7219 0.519531 31.8408 1.40058 31.8408 2.47742C31.8408 3.55425 32.7219 4.4353 33.7987 4.4353Z" fill="white"/>
<path d="M2.66785 33.2163H9.91202C10.9889 33.2163 11.8699 32.3353 11.8699 31.2585C11.8699 30.1816 10.9889 29.3006 9.91202 29.3006H4.62573V24.0143C4.62573 22.9374 3.74468 22.0564 2.66785 22.0564C1.59101 22.0564 0.709961 22.9374 0.709961 24.0143V31.2585C0.709961 32.3353 1.59101 33.2163 2.66785 33.2163Z" fill="white"/>
<path d="M33.7987 33.2163H41.0429C42.1197 33.2163 43.0008 32.3353 43.0008 31.2585V24.0143C43.0008 22.9374 42.1197 22.0564 41.0429 22.0564C39.966 22.0564 39.085 22.9374 39.085 24.0143V29.3006H33.7987C32.7219 29.3006 31.8408 30.1816 31.8408 31.2585C31.8408 32.3353 32.7219 33.2163 33.7987 33.2163Z" fill="white"/>
</svg>
