<svg width="37" height="36" viewBox="0 0 37 36" fill="none" xmlns="http://www.w3.org/2000/svg">
<path fill-rule="evenodd" clip-rule="evenodd" d="M7.24778 31.8135V29.0459C7.24778 28.2924 6.69975 27.6667 6.03754 27.6667H3.62161C2.96396 27.6667 2.41593 28.2924 2.41593 29.0505V31.8135C2.41593 32.5716 2.96396 33.1973 3.62161 33.1973H6.0421C6.69975 33.1973 7.24778 32.5716 7.24778 31.8135ZM7.24778 23.5153V20.7477C7.24778 19.9896 6.69975 19.364 6.03754 19.364H3.62161C2.96396 19.364 2.41593 19.9942 2.41593 20.7477V23.5153C2.41593 24.2735 2.96396 24.8991 3.62161 24.8991H6.0421C6.69975 24.8991 7.24778 24.2735 7.24778 23.5153ZM7.24778 15.2171V12.4496C7.24778 11.6914 6.69975 11.0658 6.03754 11.0658H3.62161C2.96396 11.0658 2.41593 11.6914 2.41593 12.4496V15.2171C2.41593 15.9707 2.96396 16.6009 3.62161 16.6009L6.0421 16.5964C6.69975 16.5964 7.24778 15.9707 7.24778 15.2171ZM26.5798 31.8135V20.7477C26.5798 19.9896 26.0363 19.364 25.3741 19.364H10.874C10.2117 19.364 9.66371 19.9942 9.66371 20.7477V31.8135C9.66371 32.5716 10.2117 33.1973 10.874 33.1973H25.3741C26.0363 33.1973 26.5798 32.5716 26.5798 31.8135ZM7.24778 6.91439V4.14681C7.24778 3.39326 6.69975 2.76302 6.03754 2.76302H3.62161C2.96396 2.76302 2.41593 3.39326 2.41593 4.14681V6.91439C2.41593 7.67251 2.96396 8.29819 3.62161 8.29819H6.0421C6.69975 8.29819 7.24778 7.67251 7.24778 6.91439ZM33.8321 31.8135V29.0459C33.8321 28.2924 33.2841 27.6667 32.6219 27.6667H30.2059C29.5437 27.6667 29.0003 28.2924 29.0003 29.0505V31.8135C29.0003 32.5716 29.5437 33.1973 30.2059 33.1973H32.6219C33.2841 33.1973 33.8321 32.5716 33.8321 31.8135ZM26.5798 15.2171V4.14681C26.5798 3.39326 26.0363 2.76302 25.3741 2.76302H10.874C10.2117 2.76302 9.66371 3.39326 9.66371 4.14681V15.2171C9.66371 15.9707 10.2117 16.6009 10.874 16.6009L25.3741 16.5964C26.0363 16.5964 26.5798 15.9707 26.5798 15.2171ZM33.8321 23.5153V20.7477C33.8321 19.9896 33.2841 19.364 32.6219 19.364H30.2059C29.5437 19.364 29.0003 19.9942 29.0003 20.7477V23.5153C29.0003 24.2735 29.5437 24.8991 30.2059 24.8991H32.6219C33.2841 24.8991 33.8321 24.2735 33.8321 23.5153ZM33.8321 15.2171V12.4496C33.8321 11.6914 33.2841 11.0658 32.6219 11.0658H30.2059C29.5437 11.0658 29.0003 11.6914 29.0003 12.4496V15.2171C29.0003 15.9707 29.5437 16.6009 30.2059 16.6009L32.6219 16.5964C33.2841 16.5964 33.8321 15.9707 33.8321 15.2171ZM33.8321 6.91439V4.14681C33.8321 3.39326 33.2841 2.76302 32.6219 2.76302H30.2059C29.5437 2.76302 29.0003 3.39326 29.0003 4.14681V6.91439C29.0003 7.67251 29.5437 8.29819 30.2059 8.29819H32.6219C33.2841 8.29819 33.8321 7.67251 33.8321 6.91439ZM36.248 3.4572V32.5077C36.248 34.4076 34.8871 35.9649 33.2293 35.9649H3.01877C1.35639 35.9649 0 34.4076 0 32.5077V3.4572C0 1.55277 1.35639 0 3.01877 0H33.2293C34.8871 0 36.248 1.55277 36.248 3.4572Z" fill="white"/>
</svg>
