<svg width="111" height="27" viewBox="0 0 111 27" fill="none" xmlns="http://www.w3.org/2000/svg">
<path d="M8.208 10.016H6V20H1.896V10.016H0.408V6.608H1.896V6.224C1.896 4.576 2.368 3.328 3.312 2.48C4.256 1.616 5.64 1.184 7.464 1.184C7.768 1.184 7.992 1.192 8.136 1.208V4.688C7.352 4.64 6.8 4.752 6.48 5.024C6.16 5.296 6 5.784 6 6.488V6.608H8.208V10.016ZM12.2004 5.216C11.4804 5.216 10.8884 5.008 10.4244 4.592C9.97644 4.16 9.75244 3.632 9.75244 3.008C9.75244 2.368 9.97644 1.84 10.4244 1.424C10.8884 0.991999 11.4804 0.775999 12.2004 0.775999C12.9044 0.775999 13.4804 0.991999 13.9284 1.424C14.3924 1.84 14.6244 2.368 14.6244 3.008C14.6244 3.632 14.3924 4.16 13.9284 4.592C13.4804 5.008 12.9044 5.216 12.2004 5.216ZM14.2404 6.608V20H10.1364V6.608H14.2404ZM21.3186 2.24V20H17.2146V2.24H21.3186ZM41.3807 6.464C43.0447 6.464 44.3647 6.968 45.3407 7.976C46.3327 8.984 46.8287 10.384 46.8287 12.176V20H42.7487V12.728C42.7487 11.864 42.5167 11.2 42.0527 10.736C41.6047 10.256 40.9807 10.016 40.1807 10.016C39.3807 10.016 38.7487 10.256 38.2847 10.736C37.8367 11.2 37.6127 11.864 37.6127 12.728V20H33.5327V12.728C33.5327 11.864 33.3007 11.2 32.8367 10.736C32.3887 10.256 31.7647 10.016 30.9647 10.016C30.1647 10.016 29.5327 10.256 29.0687 10.736C28.6207 11.2 28.3967 11.864 28.3967 12.728V20H24.2927V6.608H28.3967V8.288C28.8127 7.728 29.3567 7.288 30.0287 6.968C30.7007 6.632 31.4607 6.464 32.3087 6.464C33.3167 6.464 34.2127 6.68 34.9967 7.112C35.7967 7.544 36.4207 8.16 36.8687 8.96C37.3327 8.224 37.9647 7.624 38.7647 7.16C39.5647 6.696 40.4367 6.464 41.3807 6.464ZM53.8029 8.504C54.1869 7.88 54.7389 7.376 55.4589 6.992C56.1789 6.608 57.0029 6.416 57.9309 6.416C59.0349 6.416 60.0349 6.696 60.9309 7.256C61.8269 7.816 62.5309 8.616 63.0429 9.656C63.5709 10.696 63.8349 11.904 63.8349 13.28C63.8349 14.656 63.5709 15.872 63.0429 16.928C62.5309 17.968 61.8269 18.776 60.9309 19.352C60.0349 19.912 59.0349 20.192 57.9309 20.192C56.9869 20.192 56.1629 20.008 55.4589 19.64C54.7549 19.256 54.2029 18.752 53.8029 18.128V20H49.6989V2.24H53.8029V8.504ZM59.6589 13.28C59.6589 12.256 59.3709 11.456 58.7949 10.88C58.2349 10.288 57.5389 9.992 56.7069 9.992C55.8909 9.992 55.1949 10.288 54.6189 10.88C54.0589 11.472 53.7789 12.28 53.7789 13.304C53.7789 14.328 54.0589 15.136 54.6189 15.728C55.1949 16.32 55.8909 16.616 56.7069 16.616C57.5229 16.616 58.2189 16.32 58.7949 15.728C59.3709 15.12 59.6589 14.304 59.6589 13.28ZM79.668 6.608L71.268 26.36H66.852L69.924 19.544L64.476 6.608H69.06L72.156 14.984L75.228 6.608H79.668ZM87.4641 3.152C89.2401 3.152 90.7921 3.504 92.1201 4.208C93.4481 4.912 94.4721 5.904 95.1921 7.184C95.9281 8.448 96.2961 9.912 96.2961 11.576C96.2961 13.224 95.9281 14.688 95.1921 15.968C94.4721 17.248 93.4401 18.24 92.0961 18.944C90.7681 19.648 89.2241 20 87.4641 20H81.1521V3.152H87.4641ZM87.2001 16.448C88.7521 16.448 89.9601 16.024 90.8241 15.176C91.6881 14.328 92.1201 13.128 92.1201 11.576C92.1201 10.024 91.6881 8.816 90.8241 7.952C89.9601 7.088 88.7521 6.656 87.2001 6.656H85.2561V16.448H87.2001ZM110.71 3.152V6.44H106.246V20H102.142V6.44H97.6776V3.152H110.71Z" fill="#EBEBEB" stroke="#EBEBEB"/>
</svg>
