<svg width="177" height="402" viewBox="0 0 177 402" fill="none" xmlns="http://www.w3.org/2000/svg">
<ellipse cx="2.81766" cy="2.7601" rx="2.81766" ry="2.7601" fill="#282828"/>
<ellipse cx="2.81766" cy="14.7747" rx="2.81766" ry="2.7601" fill="#282828"/>
<ellipse cx="2.81766" cy="26.7892" rx="2.81766" ry="2.7601" fill="#282828"/>
<ellipse cx="2.81766" cy="38.8038" rx="2.81766" ry="2.7601" fill="#282828"/>
<ellipse cx="2.81766" cy="50.818" rx="2.81766" ry="2.7601" fill="#282828"/>
<ellipse cx="2.81766" cy="62.8329" rx="2.81766" ry="2.7601" fill="#282828"/>
<ellipse cx="2.81766" cy="74.847" rx="2.81766" ry="2.7601" fill="#282828"/>
<ellipse cx="2.81766" cy="86.8617" rx="2.81766" ry="2.7601" fill="#282828"/>
<ellipse cx="2.81766" cy="98.8763" rx="2.81766" ry="2.7601" fill="#282828"/>
<ellipse cx="2.81766" cy="110.891" rx="2.81766" ry="2.7601" fill="#282828"/>
<ellipse cx="2.81766" cy="122.905" rx="2.81766" ry="2.7601" fill="#282828"/>
<ellipse cx="2.81766" cy="134.92" rx="2.81766" ry="2.7601" fill="#282828"/>
<ellipse cx="2.81766" cy="146.934" rx="2.81766" ry="2.7601" fill="#282828"/>
<ellipse cx="2.81766" cy="158.949" rx="2.81766" ry="2.7601" fill="#282828"/>
<ellipse cx="2.81766" cy="170.964" rx="2.81766" ry="2.7601" fill="#282828"/>
<ellipse cx="2.81766" cy="182.978" rx="2.81766" ry="2.7601" fill="#282828"/>
<ellipse cx="2.81766" cy="194.993" rx="2.81766" ry="2.7601" fill="#282828"/>
<ellipse cx="2.81766" cy="207.007" rx="2.81766" ry="2.7601" fill="#282828"/>
<ellipse cx="2.81766" cy="219.022" rx="2.81766" ry="2.7601" fill="#282828"/>
<ellipse cx="2.81766" cy="231.036" rx="2.81766" ry="2.7601" fill="#282828"/>
<ellipse cx="2.81766" cy="243.051" rx="2.81766" ry="2.7601" fill="#282828"/>
<ellipse cx="2.81766" cy="255.066" rx="2.81766" ry="2.7601" fill="#282828"/>
<ellipse cx="2.81766" cy="267.08" rx="2.81766" ry="2.7601" fill="#282828"/>
<ellipse cx="2.81766" cy="279.095" rx="2.81766" ry="2.7601" fill="#282828"/>
<ellipse cx="2.81766" cy="291.109" rx="2.81766" ry="2.7601" fill="#282828"/>
<ellipse cx="2.81766" cy="303.124" rx="2.81766" ry="2.7601" fill="#282828"/>
<ellipse cx="2.81766" cy="315.138" rx="2.81766" ry="2.7601" fill="#282828"/>
<ellipse cx="2.81766" cy="327.153" rx="2.81766" ry="2.7601" fill="#282828"/>
<ellipse cx="2.81766" cy="339.167" rx="2.81766" ry="2.7601" fill="#282828"/>
<ellipse cx="2.81766" cy="351.182" rx="2.81766" ry="2.7601" fill="#282828"/>
<ellipse cx="2.81766" cy="363.196" rx="2.81766" ry="2.7601" fill="#282828"/>
<ellipse cx="2.81766" cy="375.211" rx="2.81766" ry="2.7601" fill="#282828"/>
<ellipse cx="2.81766" cy="387.225" rx="2.81766" ry="2.7601" fill="#282828"/>
<ellipse cx="2.81766" cy="399.24" rx="2.81766" ry="2.7601" fill="#282828"/>
<ellipse cx="15.0833" cy="2.7601" rx="2.81766" ry="2.7601" fill="#282828"/>
<ellipse cx="15.0833" cy="14.7747" rx="2.81766" ry="2.7601" fill="#282828"/>
<ellipse cx="15.0833" cy="26.7892" rx="2.81766" ry="2.7601" fill="#282828"/>
<ellipse cx="15.0833" cy="38.8038" rx="2.81766" ry="2.7601" fill="#282828"/>
<ellipse cx="15.0833" cy="50.818" rx="2.81766" ry="2.7601" fill="#282828"/>
<ellipse cx="15.0833" cy="62.8329" rx="2.81766" ry="2.7601" fill="#282828"/>
<ellipse cx="15.0833" cy="74.847" rx="2.81766" ry="2.7601" fill="#282828"/>
<ellipse cx="15.0833" cy="86.8617" rx="2.81766" ry="2.7601" fill="#282828"/>
<ellipse cx="15.0833" cy="98.8763" rx="2.81766" ry="2.7601" fill="#282828"/>
<ellipse cx="15.0833" cy="110.891" rx="2.81766" ry="2.7601" fill="#282828"/>
<ellipse cx="15.0833" cy="122.905" rx="2.81766" ry="2.7601" fill="#282828"/>
<ellipse cx="15.0833" cy="134.92" rx="2.81766" ry="2.7601" fill="#282828"/>
<ellipse cx="15.0833" cy="146.934" rx="2.81766" ry="2.7601" fill="#282828"/>
<ellipse cx="15.0833" cy="158.949" rx="2.81766" ry="2.7601" fill="#282828"/>
<ellipse cx="15.0833" cy="170.964" rx="2.81766" ry="2.7601" fill="#282828"/>
<ellipse cx="15.0833" cy="182.978" rx="2.81766" ry="2.7601" fill="#282828"/>
<ellipse cx="15.0833" cy="194.993" rx="2.81766" ry="2.7601" fill="#282828"/>
<ellipse cx="15.0833" cy="207.007" rx="2.81766" ry="2.7601" fill="#282828"/>
<ellipse cx="15.0833" cy="219.022" rx="2.81766" ry="2.7601" fill="#282828"/>
<ellipse cx="15.0833" cy="231.036" rx="2.81766" ry="2.7601" fill="#282828"/>
<ellipse cx="15.0833" cy="243.051" rx="2.81766" ry="2.7601" fill="#282828"/>
<ellipse cx="15.0833" cy="255.066" rx="2.81766" ry="2.7601" fill="#282828"/>
<ellipse cx="15.0833" cy="267.08" rx="2.81766" ry="2.7601" fill="#282828"/>
<ellipse cx="15.0833" cy="279.095" rx="2.81766" ry="2.7601" fill="#282828"/>
<ellipse cx="15.0833" cy="291.109" rx="2.81766" ry="2.7601" fill="#282828"/>
<ellipse cx="15.0833" cy="303.124" rx="2.81766" ry="2.7601" fill="#282828"/>
<ellipse cx="15.0833" cy="315.138" rx="2.81766" ry="2.7601" fill="#282828"/>
<ellipse cx="15.0833" cy="327.153" rx="2.81766" ry="2.7601" fill="#282828"/>
<ellipse cx="15.0833" cy="339.167" rx="2.81766" ry="2.7601" fill="#282828"/>
<ellipse cx="15.0833" cy="351.182" rx="2.81766" ry="2.7601" fill="#282828"/>
<ellipse cx="15.0833" cy="363.196" rx="2.81766" ry="2.7601" fill="#282828"/>
<ellipse cx="15.0833" cy="375.211" rx="2.81766" ry="2.7601" fill="#282828"/>
<ellipse cx="15.0833" cy="387.225" rx="2.81766" ry="2.7601" fill="#282828"/>
<ellipse cx="15.0833" cy="399.24" rx="2.81766" ry="2.7601" fill="#282828"/>
<ellipse cx="27.3479" cy="2.7601" rx="2.81766" ry="2.7601" fill="#282828"/>
<ellipse cx="27.3479" cy="14.7747" rx="2.81766" ry="2.7601" fill="#282828"/>
<ellipse cx="27.3479" cy="26.7892" rx="2.81766" ry="2.7601" fill="#282828"/>
<ellipse cx="27.3479" cy="38.8038" rx="2.81766" ry="2.7601" fill="#282828"/>
<ellipse cx="27.3479" cy="50.818" rx="2.81766" ry="2.7601" fill="#282828"/>
<ellipse cx="27.3479" cy="62.8329" rx="2.81766" ry="2.7601" fill="#282828"/>
<ellipse cx="27.3479" cy="74.847" rx="2.81766" ry="2.7601" fill="#282828"/>
<ellipse cx="27.3479" cy="86.8617" rx="2.81766" ry="2.7601" fill="#282828"/>
<ellipse cx="27.3479" cy="98.8763" rx="2.81766" ry="2.7601" fill="#282828"/>
<ellipse cx="27.3479" cy="110.891" rx="2.81766" ry="2.7601" fill="#282828"/>
<ellipse cx="27.3479" cy="122.905" rx="2.81766" ry="2.7601" fill="#282828"/>
<ellipse cx="27.3479" cy="134.92" rx="2.81766" ry="2.7601" fill="#282828"/>
<ellipse cx="27.3479" cy="146.934" rx="2.81766" ry="2.7601" fill="#282828"/>
<ellipse cx="27.3479" cy="158.949" rx="2.81766" ry="2.7601" fill="#282828"/>
<ellipse cx="27.3479" cy="170.964" rx="2.81766" ry="2.7601" fill="#282828"/>
<ellipse cx="27.3479" cy="182.978" rx="2.81766" ry="2.7601" fill="#282828"/>
<ellipse cx="27.3479" cy="194.993" rx="2.81766" ry="2.7601" fill="#282828"/>
<ellipse cx="27.3479" cy="207.007" rx="2.81766" ry="2.7601" fill="#282828"/>
<ellipse cx="27.3479" cy="219.022" rx="2.81766" ry="2.7601" fill="#282828"/>
<ellipse cx="27.3479" cy="231.036" rx="2.81766" ry="2.7601" fill="#282828"/>
<ellipse cx="27.3479" cy="243.051" rx="2.81766" ry="2.7601" fill="#282828"/>
<ellipse cx="27.3479" cy="255.066" rx="2.81766" ry="2.7601" fill="#282828"/>
<ellipse cx="27.3479" cy="267.08" rx="2.81766" ry="2.7601" fill="#282828"/>
<ellipse cx="27.3479" cy="279.095" rx="2.81766" ry="2.7601" fill="#282828"/>
<ellipse cx="27.3479" cy="291.109" rx="2.81766" ry="2.7601" fill="#282828"/>
<ellipse cx="27.3479" cy="303.124" rx="2.81766" ry="2.7601" fill="#282828"/>
<ellipse cx="27.3479" cy="315.138" rx="2.81766" ry="2.7601" fill="#282828"/>
<ellipse cx="27.3479" cy="327.153" rx="2.81766" ry="2.7601" fill="#282828"/>
<ellipse cx="27.3479" cy="339.167" rx="2.81766" ry="2.7601" fill="#282828"/>
<ellipse cx="27.3479" cy="351.182" rx="2.81766" ry="2.7601" fill="#282828"/>
<ellipse cx="27.3479" cy="363.196" rx="2.81766" ry="2.7601" fill="#282828"/>
<ellipse cx="27.3479" cy="375.211" rx="2.81766" ry="2.7601" fill="#282828"/>
<ellipse cx="27.3479" cy="387.225" rx="2.81766" ry="2.7601" fill="#282828"/>
<ellipse cx="27.3479" cy="399.24" rx="2.81766" ry="2.7601" fill="#282828"/>
<ellipse cx="39.6136" cy="2.7601" rx="2.81766" ry="2.7601" fill="#282828"/>
<ellipse cx="39.6136" cy="14.7747" rx="2.81766" ry="2.7601" fill="#282828"/>
<ellipse cx="39.6136" cy="26.7892" rx="2.81766" ry="2.7601" fill="#282828"/>
<ellipse cx="39.6136" cy="38.8038" rx="2.81766" ry="2.7601" fill="#282828"/>
<ellipse cx="39.6136" cy="50.818" rx="2.81766" ry="2.7601" fill="#282828"/>
<ellipse cx="39.6136" cy="62.8329" rx="2.81766" ry="2.7601" fill="#282828"/>
<ellipse cx="39.6136" cy="74.847" rx="2.81766" ry="2.7601" fill="#282828"/>
<ellipse cx="39.6136" cy="86.8617" rx="2.81766" ry="2.7601" fill="#282828"/>
<ellipse cx="39.6136" cy="98.8763" rx="2.81766" ry="2.7601" fill="#282828"/>
<ellipse cx="39.6136" cy="110.891" rx="2.81766" ry="2.7601" fill="#282828"/>
<ellipse cx="39.6136" cy="122.905" rx="2.81766" ry="2.7601" fill="#282828"/>
<ellipse cx="39.6136" cy="134.92" rx="2.81766" ry="2.7601" fill="#282828"/>
<ellipse cx="39.6136" cy="146.934" rx="2.81766" ry="2.7601" fill="#282828"/>
<ellipse cx="39.6136" cy="158.949" rx="2.81766" ry="2.7601" fill="#282828"/>
<ellipse cx="39.6136" cy="170.964" rx="2.81766" ry="2.7601" fill="#282828"/>
<ellipse cx="39.6136" cy="182.978" rx="2.81766" ry="2.7601" fill="#282828"/>
<ellipse cx="39.6136" cy="194.993" rx="2.81766" ry="2.7601" fill="#282828"/>
<ellipse cx="39.6136" cy="207.007" rx="2.81766" ry="2.7601" fill="#282828"/>
<ellipse cx="39.6136" cy="219.022" rx="2.81766" ry="2.7601" fill="#282828"/>
<ellipse cx="39.6136" cy="231.036" rx="2.81766" ry="2.7601" fill="#282828"/>
<ellipse cx="39.6136" cy="243.051" rx="2.81766" ry="2.7601" fill="#282828"/>
<ellipse cx="39.6136" cy="255.066" rx="2.81766" ry="2.7601" fill="#282828"/>
<ellipse cx="39.6136" cy="267.08" rx="2.81766" ry="2.7601" fill="#282828"/>
<ellipse cx="39.6136" cy="279.095" rx="2.81766" ry="2.7601" fill="#282828"/>
<ellipse cx="39.6136" cy="291.109" rx="2.81766" ry="2.7601" fill="#282828"/>
<ellipse cx="39.6136" cy="303.124" rx="2.81766" ry="2.7601" fill="#282828"/>
<ellipse cx="39.6136" cy="315.138" rx="2.81766" ry="2.7601" fill="#282828"/>
<ellipse cx="39.6136" cy="327.153" rx="2.81766" ry="2.7601" fill="#282828"/>
<ellipse cx="39.6136" cy="339.167" rx="2.81766" ry="2.7601" fill="#282828"/>
<ellipse cx="39.6136" cy="351.182" rx="2.81766" ry="2.7601" fill="#282828"/>
<ellipse cx="39.6136" cy="363.196" rx="2.81766" ry="2.7601" fill="#282828"/>
<ellipse cx="39.6136" cy="375.211" rx="2.81766" ry="2.7601" fill="#282828"/>
<ellipse cx="39.6136" cy="387.225" rx="2.81766" ry="2.7601" fill="#282828"/>
<ellipse cx="39.6136" cy="399.24" rx="2.81766" ry="2.7601" fill="#282828"/>
<ellipse cx="51.8782" cy="2.7601" rx="2.81766" ry="2.7601" fill="#282828"/>
<ellipse cx="51.8782" cy="14.7747" rx="2.81766" ry="2.7601" fill="#282828"/>
<ellipse cx="51.8782" cy="26.7892" rx="2.81766" ry="2.7601" fill="#282828"/>
<ellipse cx="51.8782" cy="38.8038" rx="2.81766" ry="2.7601" fill="#282828"/>
<ellipse cx="51.8782" cy="50.818" rx="2.81766" ry="2.7601" fill="#282828"/>
<ellipse cx="51.8782" cy="62.8329" rx="2.81766" ry="2.7601" fill="#282828"/>
<ellipse cx="51.8782" cy="74.847" rx="2.81766" ry="2.7601" fill="#282828"/>
<ellipse cx="51.8782" cy="86.8617" rx="2.81766" ry="2.7601" fill="#282828"/>
<ellipse cx="51.8782" cy="98.8763" rx="2.81766" ry="2.7601" fill="#282828"/>
<ellipse cx="51.8782" cy="110.891" rx="2.81766" ry="2.7601" fill="#282828"/>
<ellipse cx="51.8782" cy="122.905" rx="2.81766" ry="2.7601" fill="#282828"/>
<ellipse cx="51.8782" cy="134.92" rx="2.81766" ry="2.7601" fill="#282828"/>
<ellipse cx="51.8782" cy="146.934" rx="2.81766" ry="2.7601" fill="#282828"/>
<ellipse cx="51.8782" cy="158.949" rx="2.81766" ry="2.7601" fill="#282828"/>
<ellipse cx="51.8782" cy="170.964" rx="2.81766" ry="2.7601" fill="#282828"/>
<ellipse cx="51.8782" cy="182.978" rx="2.81766" ry="2.7601" fill="#282828"/>
<ellipse cx="51.8782" cy="194.993" rx="2.81766" ry="2.7601" fill="#282828"/>
<ellipse cx="51.8782" cy="207.007" rx="2.81766" ry="2.7601" fill="#282828"/>
<ellipse cx="51.8782" cy="219.022" rx="2.81766" ry="2.7601" fill="#282828"/>
<ellipse cx="51.8782" cy="231.036" rx="2.81766" ry="2.7601" fill="#282828"/>
<ellipse cx="51.8782" cy="243.051" rx="2.81766" ry="2.7601" fill="#282828"/>
<ellipse cx="51.8782" cy="255.066" rx="2.81766" ry="2.7601" fill="#282828"/>
<ellipse cx="51.8782" cy="267.08" rx="2.81766" ry="2.7601" fill="#282828"/>
<ellipse cx="51.8782" cy="279.095" rx="2.81766" ry="2.7601" fill="#282828"/>
<ellipse cx="51.8782" cy="291.109" rx="2.81766" ry="2.7601" fill="#282828"/>
<ellipse cx="51.8782" cy="303.124" rx="2.81766" ry="2.7601" fill="#282828"/>
<ellipse cx="51.8782" cy="315.138" rx="2.81766" ry="2.7601" fill="#282828"/>
<ellipse cx="51.8782" cy="327.153" rx="2.81766" ry="2.7601" fill="#282828"/>
<ellipse cx="51.8782" cy="339.167" rx="2.81766" ry="2.7601" fill="#282828"/>
<ellipse cx="51.8782" cy="351.182" rx="2.81766" ry="2.7601" fill="#282828"/>
<ellipse cx="51.8782" cy="363.196" rx="2.81766" ry="2.7601" fill="#282828"/>
<ellipse cx="51.8782" cy="375.211" rx="2.81766" ry="2.7601" fill="#282828"/>
<ellipse cx="51.8782" cy="387.225" rx="2.81766" ry="2.7601" fill="#282828"/>
<ellipse cx="51.8782" cy="399.24" rx="2.81766" ry="2.7601" fill="#282828"/>
<ellipse cx="64.1438" cy="2.7601" rx="2.81766" ry="2.7601" fill="#282828"/>
<ellipse cx="64.1438" cy="14.7747" rx="2.81766" ry="2.7601" fill="#282828"/>
<ellipse cx="64.1438" cy="26.7892" rx="2.81766" ry="2.7601" fill="#282828"/>
<ellipse cx="64.1438" cy="38.8038" rx="2.81766" ry="2.7601" fill="#282828"/>
<ellipse cx="64.1438" cy="50.818" rx="2.81766" ry="2.7601" fill="#282828"/>
<ellipse cx="64.1438" cy="62.8329" rx="2.81766" ry="2.7601" fill="#282828"/>
<ellipse cx="64.1438" cy="74.847" rx="2.81766" ry="2.7601" fill="#282828"/>
<ellipse cx="64.1438" cy="86.8617" rx="2.81766" ry="2.7601" fill="#282828"/>
<ellipse cx="64.1438" cy="98.8763" rx="2.81766" ry="2.7601" fill="#282828"/>
<ellipse cx="64.1438" cy="110.891" rx="2.81766" ry="2.7601" fill="#282828"/>
<ellipse cx="64.1438" cy="122.905" rx="2.81766" ry="2.7601" fill="#282828"/>
<ellipse cx="64.1438" cy="134.92" rx="2.81766" ry="2.7601" fill="#282828"/>
<ellipse cx="64.1438" cy="146.934" rx="2.81766" ry="2.7601" fill="#282828"/>
<ellipse cx="64.1438" cy="158.949" rx="2.81766" ry="2.7601" fill="#282828"/>
<ellipse cx="64.1438" cy="170.964" rx="2.81766" ry="2.7601" fill="#282828"/>
<ellipse cx="64.1438" cy="182.978" rx="2.81766" ry="2.7601" fill="#282828"/>
<ellipse cx="64.1438" cy="194.993" rx="2.81766" ry="2.7601" fill="#282828"/>
<ellipse cx="64.1438" cy="207.007" rx="2.81766" ry="2.7601" fill="#282828"/>
<ellipse cx="64.1438" cy="219.022" rx="2.81766" ry="2.7601" fill="#282828"/>
<ellipse cx="64.1438" cy="231.036" rx="2.81766" ry="2.7601" fill="#282828"/>
<ellipse cx="64.1438" cy="243.051" rx="2.81766" ry="2.7601" fill="#282828"/>
<ellipse cx="64.1438" cy="255.066" rx="2.81766" ry="2.7601" fill="#282828"/>
<ellipse cx="64.1438" cy="267.08" rx="2.81766" ry="2.7601" fill="#282828"/>
<ellipse cx="64.1438" cy="279.095" rx="2.81766" ry="2.7601" fill="#282828"/>
<ellipse cx="64.1438" cy="291.109" rx="2.81766" ry="2.7601" fill="#282828"/>
<ellipse cx="64.1438" cy="303.124" rx="2.81766" ry="2.7601" fill="#282828"/>
<ellipse cx="64.1438" cy="315.138" rx="2.81766" ry="2.7601" fill="#282828"/>
<ellipse cx="64.1438" cy="327.153" rx="2.81766" ry="2.7601" fill="#282828"/>
<ellipse cx="64.1438" cy="339.167" rx="2.81766" ry="2.7601" fill="#282828"/>
<ellipse cx="64.1438" cy="351.182" rx="2.81766" ry="2.7601" fill="#282828"/>
<ellipse cx="64.1438" cy="363.196" rx="2.81766" ry="2.7601" fill="#282828"/>
<ellipse cx="64.1438" cy="375.211" rx="2.81766" ry="2.7601" fill="#282828"/>
<ellipse cx="64.1438" cy="387.225" rx="2.81766" ry="2.7601" fill="#282828"/>
<ellipse cx="64.1438" cy="399.24" rx="2.81766" ry="2.7601" fill="#282828"/>
<ellipse cx="76.4085" cy="2.7601" rx="2.81766" ry="2.7601" fill="#282828"/>
<ellipse cx="76.4085" cy="14.7747" rx="2.81766" ry="2.7601" fill="#282828"/>
<ellipse cx="76.4085" cy="26.7892" rx="2.81766" ry="2.7601" fill="#282828"/>
<ellipse cx="76.4085" cy="38.8038" rx="2.81766" ry="2.7601" fill="#282828"/>
<ellipse cx="76.4085" cy="50.818" rx="2.81766" ry="2.7601" fill="#282828"/>
<ellipse cx="76.4085" cy="62.8329" rx="2.81766" ry="2.7601" fill="#282828"/>
<ellipse cx="76.4085" cy="74.847" rx="2.81766" ry="2.7601" fill="#282828"/>
<ellipse cx="76.4085" cy="86.8617" rx="2.81766" ry="2.7601" fill="#282828"/>
<ellipse cx="76.4085" cy="98.8763" rx="2.81766" ry="2.7601" fill="#282828"/>
<ellipse cx="76.4085" cy="110.891" rx="2.81766" ry="2.7601" fill="#282828"/>
<ellipse cx="76.4085" cy="122.905" rx="2.81766" ry="2.7601" fill="#282828"/>
<ellipse cx="76.4085" cy="134.92" rx="2.81766" ry="2.7601" fill="#282828"/>
<ellipse cx="76.4085" cy="146.934" rx="2.81766" ry="2.7601" fill="#282828"/>
<ellipse cx="76.4085" cy="158.949" rx="2.81766" ry="2.7601" fill="#282828"/>
<ellipse cx="76.4085" cy="170.964" rx="2.81766" ry="2.7601" fill="#282828"/>
<ellipse cx="76.4085" cy="182.978" rx="2.81766" ry="2.7601" fill="#282828"/>
<ellipse cx="76.4085" cy="194.993" rx="2.81766" ry="2.7601" fill="#282828"/>
<ellipse cx="76.4085" cy="207.007" rx="2.81766" ry="2.7601" fill="#282828"/>
<ellipse cx="76.4085" cy="219.022" rx="2.81766" ry="2.7601" fill="#282828"/>
<ellipse cx="76.4085" cy="231.036" rx="2.81766" ry="2.7601" fill="#282828"/>
<ellipse cx="76.4085" cy="243.051" rx="2.81766" ry="2.7601" fill="#282828"/>
<ellipse cx="76.4085" cy="255.066" rx="2.81766" ry="2.7601" fill="#282828"/>
<ellipse cx="76.4085" cy="267.08" rx="2.81766" ry="2.7601" fill="#282828"/>
<ellipse cx="76.4085" cy="279.095" rx="2.81766" ry="2.7601" fill="#282828"/>
<ellipse cx="76.4085" cy="291.109" rx="2.81766" ry="2.7601" fill="#282828"/>
<ellipse cx="76.4085" cy="303.124" rx="2.81766" ry="2.7601" fill="#282828"/>
<ellipse cx="76.4085" cy="315.138" rx="2.81766" ry="2.7601" fill="#282828"/>
<ellipse cx="76.4085" cy="327.153" rx="2.81766" ry="2.7601" fill="#282828"/>
<ellipse cx="76.4085" cy="339.167" rx="2.81766" ry="2.7601" fill="#282828"/>
<ellipse cx="76.4085" cy="351.182" rx="2.81766" ry="2.7601" fill="#282828"/>
<ellipse cx="76.4085" cy="363.196" rx="2.81766" ry="2.7601" fill="#282828"/>
<ellipse cx="76.4085" cy="375.211" rx="2.81766" ry="2.7601" fill="#282828"/>
<ellipse cx="76.4085" cy="387.225" rx="2.81766" ry="2.7601" fill="#282828"/>
<ellipse cx="76.4085" cy="399.24" rx="2.81766" ry="2.7601" fill="#282828"/>
<ellipse cx="88.6741" cy="2.7601" rx="2.81766" ry="2.7601" fill="#282828"/>
<ellipse cx="88.6741" cy="14.7747" rx="2.81766" ry="2.7601" fill="#282828"/>
<ellipse cx="88.6741" cy="26.7892" rx="2.81766" ry="2.7601" fill="#282828"/>
<ellipse cx="88.6741" cy="38.8038" rx="2.81766" ry="2.7601" fill="#282828"/>
<ellipse cx="88.6741" cy="50.818" rx="2.81766" ry="2.7601" fill="#282828"/>
<ellipse cx="88.6741" cy="62.8329" rx="2.81766" ry="2.7601" fill="#282828"/>
<ellipse cx="88.6741" cy="74.847" rx="2.81766" ry="2.7601" fill="#282828"/>
<ellipse cx="88.6741" cy="86.8617" rx="2.81766" ry="2.7601" fill="#282828"/>
<ellipse cx="88.6741" cy="98.8763" rx="2.81766" ry="2.7601" fill="#282828"/>
<ellipse cx="88.6741" cy="110.891" rx="2.81766" ry="2.7601" fill="#282828"/>
<ellipse cx="88.6741" cy="122.905" rx="2.81766" ry="2.7601" fill="#282828"/>
<ellipse cx="88.6741" cy="134.92" rx="2.81766" ry="2.7601" fill="#282828"/>
<ellipse cx="88.6741" cy="146.934" rx="2.81766" ry="2.7601" fill="#282828"/>
<ellipse cx="88.6741" cy="158.949" rx="2.81766" ry="2.7601" fill="#282828"/>
<ellipse cx="88.6741" cy="170.964" rx="2.81766" ry="2.7601" fill="#282828"/>
<ellipse cx="88.6741" cy="182.978" rx="2.81766" ry="2.7601" fill="#282828"/>
<ellipse cx="88.6741" cy="194.993" rx="2.81766" ry="2.7601" fill="#282828"/>
<ellipse cx="88.6741" cy="207.007" rx="2.81766" ry="2.7601" fill="#282828"/>
<ellipse cx="88.6741" cy="219.022" rx="2.81766" ry="2.7601" fill="#282828"/>
<ellipse cx="88.6741" cy="231.036" rx="2.81766" ry="2.7601" fill="#282828"/>
<ellipse cx="88.6741" cy="243.051" rx="2.81766" ry="2.7601" fill="#282828"/>
<ellipse cx="88.6741" cy="255.066" rx="2.81766" ry="2.7601" fill="#282828"/>
<ellipse cx="88.6741" cy="267.08" rx="2.81766" ry="2.7601" fill="#282828"/>
<ellipse cx="88.6741" cy="279.095" rx="2.81766" ry="2.7601" fill="#282828"/>
<ellipse cx="88.6741" cy="291.109" rx="2.81766" ry="2.7601" fill="#282828"/>
<ellipse cx="88.6741" cy="303.124" rx="2.81766" ry="2.7601" fill="#282828"/>
<ellipse cx="88.6741" cy="315.138" rx="2.81766" ry="2.7601" fill="#282828"/>
<ellipse cx="88.6741" cy="327.153" rx="2.81766" ry="2.7601" fill="#282828"/>
<ellipse cx="88.6741" cy="339.167" rx="2.81766" ry="2.7601" fill="#282828"/>
<ellipse cx="88.6741" cy="351.182" rx="2.81766" ry="2.7601" fill="#282828"/>
<ellipse cx="88.6741" cy="363.196" rx="2.81766" ry="2.7601" fill="#282828"/>
<ellipse cx="88.6741" cy="375.211" rx="2.81766" ry="2.7601" fill="#282828"/>
<ellipse cx="88.6741" cy="387.225" rx="2.81766" ry="2.7601" fill="#282828"/>
<ellipse cx="88.6741" cy="399.24" rx="2.81766" ry="2.7601" fill="#282828"/>
<ellipse cx="100.939" cy="2.7601" rx="2.81766" ry="2.7601" fill="#282828"/>
<ellipse cx="100.939" cy="14.7747" rx="2.81766" ry="2.7601" fill="#282828"/>
<ellipse cx="100.939" cy="26.7892" rx="2.81766" ry="2.7601" fill="#282828"/>
<ellipse cx="100.939" cy="38.8038" rx="2.81766" ry="2.7601" fill="#282828"/>
<ellipse cx="100.939" cy="50.818" rx="2.81766" ry="2.7601" fill="#282828"/>
<ellipse cx="100.939" cy="62.8329" rx="2.81766" ry="2.7601" fill="#282828"/>
<ellipse cx="100.939" cy="74.847" rx="2.81766" ry="2.7601" fill="#282828"/>
<ellipse cx="100.939" cy="86.8617" rx="2.81766" ry="2.7601" fill="#282828"/>
<ellipse cx="100.939" cy="98.8763" rx="2.81766" ry="2.7601" fill="#282828"/>
<ellipse cx="100.939" cy="110.891" rx="2.81766" ry="2.7601" fill="#282828"/>
<ellipse cx="100.939" cy="122.905" rx="2.81766" ry="2.7601" fill="#282828"/>
<ellipse cx="100.939" cy="134.92" rx="2.81766" ry="2.7601" fill="#282828"/>
<ellipse cx="100.939" cy="146.934" rx="2.81766" ry="2.7601" fill="#282828"/>
<ellipse cx="100.939" cy="158.949" rx="2.81766" ry="2.7601" fill="#282828"/>
<ellipse cx="100.939" cy="170.964" rx="2.81766" ry="2.7601" fill="#282828"/>
<ellipse cx="100.939" cy="182.978" rx="2.81766" ry="2.7601" fill="#282828"/>
<ellipse cx="100.939" cy="194.993" rx="2.81766" ry="2.7601" fill="#282828"/>
<ellipse cx="100.939" cy="207.007" rx="2.81766" ry="2.7601" fill="#282828"/>
<ellipse cx="100.939" cy="219.022" rx="2.81766" ry="2.7601" fill="#282828"/>
<ellipse cx="100.939" cy="231.036" rx="2.81766" ry="2.7601" fill="#282828"/>
<ellipse cx="100.939" cy="243.051" rx="2.81766" ry="2.7601" fill="#282828"/>
<ellipse cx="100.939" cy="255.066" rx="2.81766" ry="2.7601" fill="#282828"/>
<ellipse cx="100.939" cy="267.08" rx="2.81766" ry="2.7601" fill="#282828"/>
<ellipse cx="100.939" cy="279.095" rx="2.81766" ry="2.7601" fill="#282828"/>
<ellipse cx="100.939" cy="291.109" rx="2.81766" ry="2.7601" fill="#282828"/>
<ellipse cx="100.939" cy="303.124" rx="2.81766" ry="2.7601" fill="#282828"/>
<ellipse cx="100.939" cy="315.138" rx="2.81766" ry="2.7601" fill="#282828"/>
<ellipse cx="100.939" cy="327.153" rx="2.81766" ry="2.7601" fill="#282828"/>
<ellipse cx="100.939" cy="339.167" rx="2.81766" ry="2.7601" fill="#282828"/>
<ellipse cx="100.939" cy="351.182" rx="2.81766" ry="2.7601" fill="#282828"/>
<ellipse cx="100.939" cy="363.196" rx="2.81766" ry="2.7601" fill="#282828"/>
<ellipse cx="100.939" cy="375.211" rx="2.81766" ry="2.7601" fill="#282828"/>
<ellipse cx="100.939" cy="387.225" rx="2.81766" ry="2.7601" fill="#282828"/>
<ellipse cx="100.939" cy="399.24" rx="2.81766" ry="2.7601" fill="#282828"/>
<ellipse cx="113.204" cy="2.7601" rx="2.81766" ry="2.7601" fill="#282828"/>
<ellipse cx="113.204" cy="14.7747" rx="2.81766" ry="2.7601" fill="#282828"/>
<ellipse cx="113.204" cy="26.7892" rx="2.81766" ry="2.7601" fill="#282828"/>
<ellipse cx="113.204" cy="38.8038" rx="2.81766" ry="2.7601" fill="#282828"/>
<ellipse cx="113.204" cy="50.818" rx="2.81766" ry="2.7601" fill="#282828"/>
<ellipse cx="113.204" cy="62.8329" rx="2.81766" ry="2.7601" fill="#282828"/>
<ellipse cx="113.204" cy="74.847" rx="2.81766" ry="2.7601" fill="#282828"/>
<ellipse cx="113.204" cy="86.8617" rx="2.81766" ry="2.7601" fill="#282828"/>
<ellipse cx="113.204" cy="98.8763" rx="2.81766" ry="2.7601" fill="#282828"/>
<ellipse cx="113.204" cy="110.891" rx="2.81766" ry="2.7601" fill="#282828"/>
<ellipse cx="113.204" cy="122.905" rx="2.81766" ry="2.7601" fill="#282828"/>
<ellipse cx="113.204" cy="134.92" rx="2.81766" ry="2.7601" fill="#282828"/>
<ellipse cx="113.204" cy="146.934" rx="2.81766" ry="2.7601" fill="#282828"/>
<ellipse cx="113.204" cy="158.949" rx="2.81766" ry="2.7601" fill="#282828"/>
<ellipse cx="113.204" cy="170.964" rx="2.81766" ry="2.7601" fill="#282828"/>
<ellipse cx="113.204" cy="182.978" rx="2.81766" ry="2.7601" fill="#282828"/>
<ellipse cx="113.204" cy="194.993" rx="2.81766" ry="2.7601" fill="#282828"/>
<ellipse cx="113.204" cy="207.007" rx="2.81766" ry="2.7601" fill="#282828"/>
<ellipse cx="113.204" cy="219.022" rx="2.81766" ry="2.7601" fill="#282828"/>
<ellipse cx="113.204" cy="231.036" rx="2.81766" ry="2.7601" fill="#282828"/>
<ellipse cx="113.204" cy="243.051" rx="2.81766" ry="2.7601" fill="#282828"/>
<ellipse cx="113.204" cy="255.066" rx="2.81766" ry="2.7601" fill="#282828"/>
<ellipse cx="113.204" cy="267.08" rx="2.81766" ry="2.7601" fill="#282828"/>
<ellipse cx="113.204" cy="279.095" rx="2.81766" ry="2.7601" fill="#282828"/>
<ellipse cx="113.204" cy="291.109" rx="2.81766" ry="2.7601" fill="#282828"/>
<ellipse cx="113.204" cy="303.124" rx="2.81766" ry="2.7601" fill="#282828"/>
<ellipse cx="113.204" cy="315.138" rx="2.81766" ry="2.7601" fill="#282828"/>
<ellipse cx="113.204" cy="327.153" rx="2.81766" ry="2.7601" fill="#282828"/>
<ellipse cx="113.204" cy="339.167" rx="2.81766" ry="2.7601" fill="#282828"/>
<ellipse cx="113.204" cy="351.182" rx="2.81766" ry="2.7601" fill="#282828"/>
<ellipse cx="113.204" cy="363.196" rx="2.81766" ry="2.7601" fill="#282828"/>
<ellipse cx="113.204" cy="375.211" rx="2.81766" ry="2.7601" fill="#282828"/>
<ellipse cx="113.204" cy="387.225" rx="2.81766" ry="2.7601" fill="#282828"/>
<ellipse cx="113.204" cy="399.24" rx="2.81766" ry="2.7601" fill="#282828"/>
<ellipse cx="125.468" cy="2.7601" rx="2.81766" ry="2.7601" fill="#282828"/>
<ellipse cx="125.468" cy="14.7747" rx="2.81766" ry="2.7601" fill="#282828"/>
<ellipse cx="125.468" cy="26.7892" rx="2.81766" ry="2.7601" fill="#282828"/>
<ellipse cx="125.468" cy="38.8038" rx="2.81766" ry="2.7601" fill="#282828"/>
<ellipse cx="125.468" cy="50.818" rx="2.81766" ry="2.7601" fill="#282828"/>
<ellipse cx="125.468" cy="62.8329" rx="2.81766" ry="2.7601" fill="#282828"/>
<ellipse cx="125.468" cy="74.847" rx="2.81766" ry="2.7601" fill="#282828"/>
<ellipse cx="125.468" cy="86.8617" rx="2.81766" ry="2.7601" fill="#282828"/>
<ellipse cx="125.468" cy="98.8763" rx="2.81766" ry="2.7601" fill="#282828"/>
<ellipse cx="125.468" cy="110.891" rx="2.81766" ry="2.7601" fill="#282828"/>
<ellipse cx="125.468" cy="122.905" rx="2.81766" ry="2.7601" fill="#282828"/>
<ellipse cx="125.468" cy="134.92" rx="2.81766" ry="2.7601" fill="#282828"/>
<ellipse cx="125.468" cy="146.934" rx="2.81766" ry="2.7601" fill="#282828"/>
<ellipse cx="125.468" cy="158.949" rx="2.81766" ry="2.7601" fill="#282828"/>
<ellipse cx="125.468" cy="170.964" rx="2.81766" ry="2.7601" fill="#282828"/>
<ellipse cx="125.468" cy="182.978" rx="2.81766" ry="2.7601" fill="#282828"/>
<ellipse cx="125.468" cy="194.993" rx="2.81766" ry="2.7601" fill="#282828"/>
<ellipse cx="125.468" cy="207.007" rx="2.81766" ry="2.7601" fill="#282828"/>
<ellipse cx="125.468" cy="219.022" rx="2.81766" ry="2.7601" fill="#282828"/>
<ellipse cx="125.468" cy="231.036" rx="2.81766" ry="2.7601" fill="#282828"/>
<ellipse cx="125.468" cy="243.051" rx="2.81766" ry="2.7601" fill="#282828"/>
<ellipse cx="125.468" cy="255.066" rx="2.81766" ry="2.7601" fill="#282828"/>
<ellipse cx="125.468" cy="267.08" rx="2.81766" ry="2.7601" fill="#282828"/>
<ellipse cx="125.468" cy="279.095" rx="2.81766" ry="2.7601" fill="#282828"/>
<ellipse cx="125.468" cy="291.109" rx="2.81766" ry="2.7601" fill="#282828"/>
<ellipse cx="125.468" cy="303.124" rx="2.81766" ry="2.7601" fill="#282828"/>
<ellipse cx="125.468" cy="315.138" rx="2.81766" ry="2.7601" fill="#282828"/>
<ellipse cx="125.468" cy="327.153" rx="2.81766" ry="2.7601" fill="#282828"/>
<ellipse cx="125.468" cy="339.167" rx="2.81766" ry="2.7601" fill="#282828"/>
<ellipse cx="125.468" cy="351.182" rx="2.81766" ry="2.7601" fill="#282828"/>
<ellipse cx="125.468" cy="363.196" rx="2.81766" ry="2.7601" fill="#282828"/>
<ellipse cx="125.468" cy="375.211" rx="2.81766" ry="2.7601" fill="#282828"/>
<ellipse cx="125.468" cy="387.225" rx="2.81766" ry="2.7601" fill="#282828"/>
<ellipse cx="125.468" cy="399.24" rx="2.81766" ry="2.7601" fill="#282828"/>
<ellipse cx="137.733" cy="2.7601" rx="2.81766" ry="2.7601" fill="#282828"/>
<ellipse cx="137.733" cy="14.7747" rx="2.81766" ry="2.7601" fill="#282828"/>
<ellipse cx="137.733" cy="26.7892" rx="2.81766" ry="2.7601" fill="#282828"/>
<ellipse cx="137.733" cy="38.8038" rx="2.81766" ry="2.7601" fill="#282828"/>
<ellipse cx="137.733" cy="50.818" rx="2.81766" ry="2.7601" fill="#282828"/>
<ellipse cx="137.733" cy="62.8329" rx="2.81766" ry="2.7601" fill="#282828"/>
<ellipse cx="137.733" cy="74.847" rx="2.81766" ry="2.7601" fill="#282828"/>
<ellipse cx="137.733" cy="86.8617" rx="2.81766" ry="2.7601" fill="#282828"/>
<ellipse cx="137.733" cy="98.8763" rx="2.81766" ry="2.7601" fill="#282828"/>
<ellipse cx="137.733" cy="110.891" rx="2.81766" ry="2.7601" fill="#282828"/>
<ellipse cx="137.733" cy="122.905" rx="2.81766" ry="2.7601" fill="#282828"/>
<ellipse cx="137.733" cy="134.92" rx="2.81766" ry="2.7601" fill="#282828"/>
<ellipse cx="137.733" cy="146.934" rx="2.81766" ry="2.7601" fill="#282828"/>
<ellipse cx="137.733" cy="158.949" rx="2.81766" ry="2.7601" fill="#282828"/>
<ellipse cx="137.733" cy="170.964" rx="2.81766" ry="2.7601" fill="#282828"/>
<ellipse cx="137.733" cy="182.978" rx="2.81766" ry="2.7601" fill="#282828"/>
<ellipse cx="137.733" cy="194.993" rx="2.81766" ry="2.7601" fill="#282828"/>
<ellipse cx="137.733" cy="207.007" rx="2.81766" ry="2.7601" fill="#282828"/>
<ellipse cx="137.733" cy="219.022" rx="2.81766" ry="2.7601" fill="#282828"/>
<ellipse cx="137.733" cy="231.036" rx="2.81766" ry="2.7601" fill="#282828"/>
<ellipse cx="137.733" cy="243.051" rx="2.81766" ry="2.7601" fill="#282828"/>
<ellipse cx="137.733" cy="255.066" rx="2.81766" ry="2.7601" fill="#282828"/>
<ellipse cx="137.733" cy="267.08" rx="2.81766" ry="2.7601" fill="#282828"/>
<ellipse cx="137.733" cy="279.095" rx="2.81766" ry="2.7601" fill="#282828"/>
<ellipse cx="137.733" cy="291.109" rx="2.81766" ry="2.7601" fill="#282828"/>
<ellipse cx="137.733" cy="303.124" rx="2.81766" ry="2.7601" fill="#282828"/>
<ellipse cx="137.733" cy="315.138" rx="2.81766" ry="2.7601" fill="#282828"/>
<ellipse cx="137.733" cy="327.153" rx="2.81766" ry="2.7601" fill="#282828"/>
<ellipse cx="137.733" cy="339.167" rx="2.81766" ry="2.7601" fill="#282828"/>
<ellipse cx="137.733" cy="351.182" rx="2.81766" ry="2.7601" fill="#282828"/>
<ellipse cx="137.733" cy="363.196" rx="2.81766" ry="2.7601" fill="#282828"/>
<ellipse cx="137.733" cy="375.211" rx="2.81766" ry="2.7601" fill="#282828"/>
<ellipse cx="137.733" cy="387.225" rx="2.81766" ry="2.7601" fill="#282828"/>
<ellipse cx="137.733" cy="399.24" rx="2.81766" ry="2.7601" fill="#282828"/>
<ellipse cx="150" cy="2.7601" rx="2.81766" ry="2.7601" fill="#282828"/>
<ellipse cx="150" cy="14.7747" rx="2.81766" ry="2.7601" fill="#282828"/>
<ellipse cx="150" cy="26.7892" rx="2.81766" ry="2.7601" fill="#282828"/>
<ellipse cx="150" cy="38.8038" rx="2.81766" ry="2.7601" fill="#282828"/>
<ellipse cx="150" cy="50.818" rx="2.81766" ry="2.7601" fill="#282828"/>
<ellipse cx="150" cy="62.8329" rx="2.81766" ry="2.7601" fill="#282828"/>
<ellipse cx="150" cy="74.847" rx="2.81766" ry="2.7601" fill="#282828"/>
<ellipse cx="150" cy="86.8617" rx="2.81766" ry="2.7601" fill="#282828"/>
<ellipse cx="150" cy="98.8763" rx="2.81766" ry="2.7601" fill="#282828"/>
<ellipse cx="150" cy="110.891" rx="2.81766" ry="2.7601" fill="#282828"/>
<ellipse cx="150" cy="122.905" rx="2.81766" ry="2.7601" fill="#282828"/>
<ellipse cx="150" cy="134.92" rx="2.81766" ry="2.7601" fill="#282828"/>
<ellipse cx="150" cy="146.934" rx="2.81766" ry="2.7601" fill="#282828"/>
<ellipse cx="150" cy="158.949" rx="2.81766" ry="2.7601" fill="#282828"/>
<ellipse cx="150" cy="170.964" rx="2.81766" ry="2.7601" fill="#282828"/>
<ellipse cx="150" cy="182.978" rx="2.81766" ry="2.7601" fill="#282828"/>
<ellipse cx="150" cy="194.993" rx="2.81766" ry="2.7601" fill="#282828"/>
<ellipse cx="150" cy="207.007" rx="2.81766" ry="2.7601" fill="#282828"/>
<ellipse cx="150" cy="219.022" rx="2.81766" ry="2.7601" fill="#282828"/>
<ellipse cx="150" cy="231.036" rx="2.81766" ry="2.7601" fill="#282828"/>
<ellipse cx="150" cy="243.051" rx="2.81766" ry="2.7601" fill="#282828"/>
<ellipse cx="150" cy="255.066" rx="2.81766" ry="2.7601" fill="#282828"/>
<ellipse cx="150" cy="267.08" rx="2.81766" ry="2.7601" fill="#282828"/>
<ellipse cx="150" cy="279.095" rx="2.81766" ry="2.7601" fill="#282828"/>
<ellipse cx="150" cy="291.109" rx="2.81766" ry="2.7601" fill="#282828"/>
<ellipse cx="150" cy="303.124" rx="2.81766" ry="2.7601" fill="#282828"/>
<ellipse cx="150" cy="315.138" rx="2.81766" ry="2.7601" fill="#282828"/>
<ellipse cx="150" cy="327.153" rx="2.81766" ry="2.7601" fill="#282828"/>
<ellipse cx="150" cy="339.167" rx="2.81766" ry="2.7601" fill="#282828"/>
<ellipse cx="150" cy="351.182" rx="2.81766" ry="2.7601" fill="#282828"/>
<ellipse cx="150" cy="363.196" rx="2.81766" ry="2.7601" fill="#282828"/>
<ellipse cx="150" cy="375.211" rx="2.81766" ry="2.7601" fill="#282828"/>
<ellipse cx="150" cy="387.225" rx="2.81766" ry="2.7601" fill="#282828"/>
<ellipse cx="150" cy="399.24" rx="2.81766" ry="2.7601" fill="#282828"/>
<ellipse cx="162.264" cy="2.7601" rx="2.81766" ry="2.7601" fill="#282828"/>
<ellipse cx="162.264" cy="14.7747" rx="2.81766" ry="2.7601" fill="#282828"/>
<ellipse cx="162.264" cy="26.7892" rx="2.81766" ry="2.7601" fill="#282828"/>
<ellipse cx="162.264" cy="38.8038" rx="2.81766" ry="2.7601" fill="#282828"/>
<ellipse cx="162.264" cy="50.818" rx="2.81766" ry="2.7601" fill="#282828"/>
<ellipse cx="162.264" cy="62.8329" rx="2.81766" ry="2.7601" fill="#282828"/>
<ellipse cx="162.264" cy="74.847" rx="2.81766" ry="2.7601" fill="#282828"/>
<ellipse cx="162.264" cy="86.8617" rx="2.81766" ry="2.7601" fill="#282828"/>
<ellipse cx="162.264" cy="98.8763" rx="2.81766" ry="2.7601" fill="#282828"/>
<ellipse cx="162.264" cy="110.891" rx="2.81766" ry="2.7601" fill="#282828"/>
<ellipse cx="162.264" cy="122.905" rx="2.81766" ry="2.7601" fill="#282828"/>
<ellipse cx="162.264" cy="134.92" rx="2.81766" ry="2.7601" fill="#282828"/>
<ellipse cx="162.264" cy="146.934" rx="2.81766" ry="2.7601" fill="#282828"/>
<ellipse cx="162.264" cy="158.949" rx="2.81766" ry="2.7601" fill="#282828"/>
<ellipse cx="162.264" cy="170.964" rx="2.81766" ry="2.7601" fill="#282828"/>
<ellipse cx="162.264" cy="182.978" rx="2.81766" ry="2.7601" fill="#282828"/>
<ellipse cx="162.264" cy="194.993" rx="2.81766" ry="2.7601" fill="#282828"/>
<ellipse cx="162.264" cy="207.007" rx="2.81766" ry="2.7601" fill="#282828"/>
<ellipse cx="162.264" cy="219.022" rx="2.81766" ry="2.7601" fill="#282828"/>
<ellipse cx="162.264" cy="231.036" rx="2.81766" ry="2.7601" fill="#282828"/>
<ellipse cx="162.264" cy="243.051" rx="2.81766" ry="2.7601" fill="#282828"/>
<ellipse cx="162.264" cy="255.066" rx="2.81766" ry="2.7601" fill="#282828"/>
<ellipse cx="162.264" cy="267.08" rx="2.81766" ry="2.7601" fill="#282828"/>
<ellipse cx="162.264" cy="279.095" rx="2.81766" ry="2.7601" fill="#282828"/>
<ellipse cx="162.264" cy="291.109" rx="2.81766" ry="2.7601" fill="#282828"/>
<ellipse cx="162.264" cy="303.124" rx="2.81766" ry="2.7601" fill="#282828"/>
<ellipse cx="162.264" cy="315.138" rx="2.81766" ry="2.7601" fill="#282828"/>
<ellipse cx="162.264" cy="327.153" rx="2.81766" ry="2.7601" fill="#282828"/>
<ellipse cx="162.264" cy="339.167" rx="2.81766" ry="2.7601" fill="#282828"/>
<ellipse cx="162.264" cy="351.182" rx="2.81766" ry="2.7601" fill="#282828"/>
<ellipse cx="162.264" cy="363.196" rx="2.81766" ry="2.7601" fill="#282828"/>
<ellipse cx="162.264" cy="375.211" rx="2.81766" ry="2.7601" fill="#282828"/>
<ellipse cx="162.264" cy="387.225" rx="2.81766" ry="2.7601" fill="#282828"/>
<ellipse cx="162.264" cy="399.24" rx="2.81766" ry="2.7601" fill="#282828"/>
<ellipse cx="174.529" cy="2.7601" rx="2.81766" ry="2.7601" fill="#282828"/>
<ellipse cx="174.529" cy="14.7747" rx="2.81766" ry="2.7601" fill="#282828"/>
<ellipse cx="174.529" cy="26.7892" rx="2.81766" ry="2.7601" fill="#282828"/>
<ellipse cx="174.529" cy="38.8038" rx="2.81766" ry="2.7601" fill="#282828"/>
<ellipse cx="174.529" cy="50.818" rx="2.81766" ry="2.7601" fill="#282828"/>
<ellipse cx="174.529" cy="62.8329" rx="2.81766" ry="2.7601" fill="#282828"/>
<ellipse cx="174.529" cy="74.847" rx="2.81766" ry="2.7601" fill="#282828"/>
<ellipse cx="174.529" cy="86.8617" rx="2.81766" ry="2.7601" fill="#282828"/>
<ellipse cx="174.529" cy="98.8763" rx="2.81766" ry="2.7601" fill="#282828"/>
<ellipse cx="174.529" cy="110.891" rx="2.81766" ry="2.7601" fill="#282828"/>
<ellipse cx="174.529" cy="122.905" rx="2.81766" ry="2.7601" fill="#282828"/>
<ellipse cx="174.529" cy="134.92" rx="2.81766" ry="2.7601" fill="#282828"/>
<ellipse cx="174.529" cy="146.934" rx="2.81766" ry="2.7601" fill="#282828"/>
<ellipse cx="174.529" cy="158.949" rx="2.81766" ry="2.7601" fill="#282828"/>
<ellipse cx="174.529" cy="170.964" rx="2.81766" ry="2.7601" fill="#282828"/>
<ellipse cx="174.529" cy="182.978" rx="2.81766" ry="2.7601" fill="#282828"/>
<ellipse cx="174.529" cy="194.993" rx="2.81766" ry="2.7601" fill="#282828"/>
<ellipse cx="174.529" cy="207.007" rx="2.81766" ry="2.7601" fill="#282828"/>
<ellipse cx="174.529" cy="219.022" rx="2.81766" ry="2.7601" fill="#282828"/>
<ellipse cx="174.529" cy="231.036" rx="2.81766" ry="2.7601" fill="#282828"/>
<ellipse cx="174.529" cy="243.051" rx="2.81766" ry="2.7601" fill="#282828"/>
<ellipse cx="174.529" cy="255.066" rx="2.81766" ry="2.7601" fill="#282828"/>
<ellipse cx="174.529" cy="267.08" rx="2.81766" ry="2.7601" fill="#282828"/>
<ellipse cx="174.529" cy="279.095" rx="2.81766" ry="2.7601" fill="#282828"/>
<ellipse cx="174.529" cy="291.109" rx="2.81766" ry="2.7601" fill="#282828"/>
<ellipse cx="174.529" cy="303.124" rx="2.81766" ry="2.7601" fill="#282828"/>
<ellipse cx="174.529" cy="315.138" rx="2.81766" ry="2.7601" fill="#282828"/>
<ellipse cx="174.529" cy="327.153" rx="2.81766" ry="2.7601" fill="#282828"/>
<ellipse cx="174.529" cy="339.167" rx="2.81766" ry="2.7601" fill="#282828"/>
<ellipse cx="174.529" cy="351.182" rx="2.81766" ry="2.7601" fill="#282828"/>
<ellipse cx="174.529" cy="363.196" rx="2.81766" ry="2.7601" fill="#282828"/>
<ellipse cx="174.529" cy="375.211" rx="2.81766" ry="2.7601" fill="#282828"/>
<ellipse cx="174.529" cy="387.225" rx="2.81766" ry="2.7601" fill="#282828"/>
<ellipse cx="174.529" cy="399.24" rx="2.81766" ry="2.7601" fill="#282828"/>
</svg>
